<svg xmlns="http://www.w3.org/2000/svg" width="512" height="512"><path d="M418.628 255.843l-10.495 127.972c-2.684 33.112-51.986 28.556-49.301-3.986l8.136-99.66-33.438 1.87c8.217 16.841 12.855 35.716 12.855 55.73 0 33.518-13.099 64.026-34.414 86.643L280 392.439c47.104-51.823 10.657-136.026-60.203-136.026-21.071 0-40.271 8.054-54.671 21.152l-31.973-31.972c17.898-16.84 40.76-28.556 66.223-32.705l61.261-69.722-34.657-20.176-41.98 37.424c-24.406 21.803-57.437-15.051-32.949-36.936l55.322-49.382c7.973-7.16 19.607-8.299 28.881-2.93 0 0 113.328 65.817 113.49 65.98 13.18 8.217 16.842 29.288 4.964 42.793l-47.512 54.101 86.318-4.8c15.05-.895 27.336 11.715 26.115 26.603zm-52.8-125.287c22.861 0 41.41-18.549 41.41-41.41 0-22.86-18.549-41.41-41.41-41.41-22.86 0-41.41 18.55-41.41 41.41 0 22.861 18.55 41.41 41.41 41.41zM219.878 419.124c-65.572 0-103.647-73.708-67.28-126.996l-32.299-32.298c-16.922 21.396-27.01 48.488-27.01 77.857 0 106.331 122.603 163.85 204.527 99.66l-32.298-32.298c-13.016 8.868-28.718 14.075-45.64 14.075z"/></svg>